# xmcd
#
# Track frame offsets: 
#        150
#        9184
#        17821
#        28306
#        37433
#        47623
#        58122
#        71285
#        82493
#        90483
#        97837
#        107226
#        118757
#        127577
#        135457
#        146481
#        159288
#        173077
#        185948
#        201278
#        215959
#        230061
#
# Disc length: 3247 seconds
#
# Revision: 4
# Processed by: cddbd v1.5.2PL0 Copyright (c) Steve Scherf et al.
# Submitted via: ExactAudioCopyFreeDBPlugin 1.0
#
DISCID=3e0cad16
DTITLE=Arthur Smith - Here Comes the Boogie Man
DYEAR=2000
DGENRE=Country
TTITLE0=The Darktown Strutters' Ball
TTITLE1=Stompin' at the Savoy
TTITLE2=Stuff and Such
TTITLE3=Guitar Jump
TTITLE4=Silver Bells
TTITLE5=Drifting and Dreaming
TTITLE6=Seventh Street Boogie
TTITLE7=After You've Gone
TTITLE8=Shortnin' Bread
TTITLE9=The Sheik of Araby
TTITLE10=Rock and Rye Polka
TTITLE11=Blue Boogie
TTITLE12=Rainbow
TTITLE13=Riffin'
TTITLE14=South
TTITLE15=String Menagerie
TTITLE16=Boomerang
TTITLE17=Guitar Artistry
TTITLE18=Guitar Boogie
TTITLE19=More Guitar Boogie
TTITLE20=Fingers on Fire
TTITLE21=No O'clock Jump
EXTD=
EXTT0=
EXTT1=
EXTT2=
EXTT3=
EXTT4=
EXTT5=
EXTT6=
EXTT7=
EXTT8=
EXTT9=
EXTT10=
EXTT11=
EXTT12=
EXTT13=
EXTT14=
EXTT15=
EXTT16=
EXTT17=
EXTT18=
EXTT19=
EXTT20=
EXTT21=
PLAYORDER=
